# xmcd
#
# Track frame offsets:
#	150
#	27021
#	43071
#	70097
#	82032
#	98925
#	120978
#	152901
#	177605
#	206512
#	227285
#	246060
#	261901
#	278026
#	301310
#	313138
#	319305
#	325767
#
# Disc length: 4412 seconds
#
# Revision: 0
# Processed by: cddbd v1.5.2PL0 Copyright (c) Steve Scherf et al.
# Submitted via: audiograbber 1.83.01
#
DISCID=f5113a12
DTITLE=CURTIS MAYFILED - BBC 83 and 90
DYEAR=1900
DGENRE=
TTITLE0=Mighty Mighty (Spade And Whitey)
TTITLE1=Gypsy Woman
TTITLE2=All Night Long
TTITLE3=People Get Ready
TTITLE4=Superfly
TTITLE5=Freddy's Dead
TTITLE6=Move On Up
TTITLE7=We Gotta Have Peace
TTITLE8=Billy Jack
TTITLE9=Move On Up
TTITLE10=I`m So Proud
TTITLE11=People Get Ready
TTITLE12=Superfly
TTITLE13=We Gotta Have Peace
TTITLE14=Curtis interview
TTITLE15=Danny Kelly and Richard Coles
TTITLE16=Danny Kelly and Richard Coles
TTITLE17=Danny Kelly and Richard Coles
EXTD=
EXTT0=
EXTT1=
EXTT2=
EXTT3=
EXTT4=
EXTT5=
EXTT6=
EXTT7=
EXTT8=
EXTT9=
EXTT10=
EXTT11=
EXTT12=
EXTT13=
EXTT14=
EXTT15=
EXTT16=
EXTT17=
PLAYORDER=
